<svg width="18" height="18" viewBox="0 0 18 18" fill="none" xmlns="http://www.w3.org/2000/svg">
<path d="M13.356 17.919H3.76707C1.68725 17.919 0 16.2317 0 14.1519V8.53057C0 6.45074 1.68725 4.76349 3.76707 4.76349H13.356C15.4358 4.76349 17.123 6.45074 17.123 8.53057V9.73336C17.123 10.0758 16.8391 10.3598 16.4966 10.3598H14.8093C14.517 10.3598 14.2497 10.4684 14.0576 10.6689L14.0493 10.6772C13.8154 10.9027 13.7068 11.2118 13.7318 11.5292C13.782 12.0804 14.3082 12.5231 14.9096 12.5231H16.4966C16.8391 12.5231 17.123 12.8071 17.123 13.1496V14.1436C17.123 16.2317 15.4358 17.919 13.356 17.919ZM3.76707 6.0164C2.38052 6.0164 1.25291 7.14402 1.25291 8.53057V14.1519C1.25291 15.5385 2.38052 16.6661 3.76707 16.6661H13.356C14.7425 16.6661 15.8701 15.5385 15.8701 14.1519V13.7844H14.9096C13.6483 13.7844 12.5792 12.8489 12.4789 11.6461C12.4121 10.9612 12.6627 10.2846 13.1639 9.79183C13.5982 9.34914 14.1829 9.10691 14.8093 9.10691H15.8701V8.53057C15.8701 7.14402 14.7425 6.0164 13.356 6.0164H3.76707Z" fill="#777792"/>
<path d="M0.626453 9.90893C0.283992 9.90893 0 9.62493 0 9.28247V5.46533C0 4.22078 0.785154 3.09312 1.94618 2.65042L8.57823 0.144611C9.26315 -0.114323 10.0232 -0.0224027 10.6163 0.395233C11.2177 0.812868 11.5685 1.48943 11.5685 2.21612V5.39013C11.5685 5.7326 11.2845 6.01659 10.942 6.01659C10.5996 6.01659 10.3156 5.7326 10.3156 5.39013V2.21612C10.3156 1.89871 10.1652 1.60636 9.89796 1.4226C9.63067 1.23884 9.31327 1.19707 9.01257 1.31401L2.38052 3.81982C1.70395 4.07876 1.24455 4.73865 1.24455 5.46533V9.28247C1.25291 9.63329 0.968914 9.90893 0.626453 9.90893Z" fill="#777792"/>
<path d="M14.9095 13.7843C13.6483 13.7843 12.5791 12.8488 12.4789 11.646C12.4121 10.9527 12.6626 10.2762 13.1638 9.78338C13.5898 9.34904 14.1745 9.10682 14.8009 9.10682H16.5383C17.3652 9.13187 18 9.78335 18 10.5852V12.3059C18 13.1078 17.3652 13.7593 16.5634 13.7843H14.9095ZM16.5216 10.3597H14.8093C14.5169 10.3597 14.2497 10.4683 14.0575 10.6688C13.8153 10.9026 13.6984 11.22 13.7318 11.5374C13.7819 12.0887 14.3081 12.5314 14.9095 12.5314H16.5466C16.6552 12.5314 16.7555 12.4312 16.7555 12.3059V10.5852C16.7555 10.4599 16.6552 10.3681 16.5216 10.3597Z" fill="#777792"/>
<path d="M10.2321 9.56638H4.38517C4.04271 9.56638 3.75872 9.28239 3.75872 8.93992C3.75872 8.59746 4.04271 8.31347 4.38517 8.31347H10.2321C10.5745 8.31347 10.8585 8.59746 10.8585 8.93992C10.8585 9.28239 10.5745 9.56638 10.2321 9.56638Z" fill="#777792"/>
</svg>
