<svg width="36" height="36" viewBox="0 0 36 36" fill="none" xmlns="http://www.w3.org/2000/svg">
<path fill-rule="evenodd" clip-rule="evenodd" d="M16.6035 24.7549C17.0352 25.2358 17.5894 25.4999 18.1644 25.4999H18.1652C18.7427 25.4999 19.2994 25.2358 19.7319 24.7541C19.9635 24.4983 20.3585 24.4774 20.6144 24.7083C20.871 24.9391 20.8919 25.3349 20.661 25.5908C19.9877 26.3383 19.1019 26.7499 18.1652 26.7499H18.1635C17.2294 26.7491 16.3452 26.3374 15.6744 25.5899C15.4435 25.3341 15.4644 24.9383 15.721 24.7083C15.9777 24.4766 16.3727 24.4974 16.6035 24.7549ZM18.2059 8.83325C21.91 8.83325 24.3984 11.7183 24.3984 14.4124C24.3984 15.7983 24.7509 16.3858 25.125 17.0091C25.495 17.6241 25.9142 18.3224 25.9142 19.6424C25.6234 23.0149 22.1025 23.2899 18.2059 23.2899C14.3092 23.2899 10.7875 23.0149 10.5 19.6958C10.4975 18.3224 10.9167 17.6241 11.2867 17.0091L11.4173 16.7892C11.7389 16.2365 12.0134 15.6352 12.0134 14.4124C12.0134 11.7183 14.5017 8.83325 18.2059 8.83325ZM18.2059 10.0833C15.2934 10.0833 13.2634 12.3649 13.2634 14.4124C13.2634 16.1449 12.7825 16.9458 12.3575 17.6524C12.0167 18.2199 11.7475 18.6683 11.7475 19.6424C11.8867 21.2141 12.9242 22.0399 18.2059 22.0399C23.4584 22.0399 24.5284 21.1774 24.6667 19.5883C24.6642 18.6683 24.395 18.2199 24.0542 17.6524C23.6292 16.9458 23.1484 16.1449 23.1484 14.4124C23.1484 12.3649 21.1184 10.0833 18.2059 10.0833Z" fill="#777792"/>
</svg>
