<svg width="20" height="20" viewBox="0 0 20 20" fill="none" xmlns="http://www.w3.org/2000/svg">
<path fill-rule="evenodd" clip-rule="evenodd" d="M13.1613 0.833496C13.5063 0.833496 13.7863 1.1135 13.7863 1.4585L13.7866 2.165C15.0034 2.24843 16.0139 2.6652 16.7292 3.38191C17.51 4.16608 17.9208 5.29358 17.9167 6.64608V14.2486C17.9167 17.0252 16.1533 18.7502 13.3158 18.7502H6.2675C3.43 18.7502 1.66667 17.0011 1.66667 14.1852V6.64441C1.66667 4.02541 3.23922 2.34428 5.80391 2.16529L5.80442 1.4585C5.80442 1.1135 6.08442 0.833496 6.42942 0.833496C6.77442 0.833496 7.05442 1.1135 7.05442 1.4585L7.05417 2.14933H12.5358L12.5363 1.4585C12.5363 1.1135 12.8163 0.833496 13.1613 0.833496ZM16.6667 8.2535H2.91667V14.1852C2.91667 16.3236 4.10667 17.5002 6.2675 17.5002H13.3158C15.4767 17.5002 16.6667 16.3452 16.6667 14.2486L16.6667 8.2535ZM13.501 13.4971C13.846 13.4971 14.126 13.7771 14.126 14.1221C14.126 14.4671 13.846 14.7471 13.501 14.7471C13.156 14.7471 12.8727 14.4671 12.8727 14.1221C12.8727 13.7771 13.1485 13.4971 13.4935 13.4971H13.501ZM9.80309 13.4971C10.1481 13.4971 10.4281 13.7771 10.4281 14.1221C10.4281 14.4671 10.1481 14.7471 9.80309 14.7471C9.45809 14.7471 9.17475 14.4671 9.17475 14.1221C9.17475 13.7771 9.45059 13.4971 9.79559 13.4971H9.80309ZM6.09742 13.4971C6.44242 13.4971 6.72242 13.7771 6.72242 14.1221C6.72242 14.4671 6.44242 14.7471 6.09742 14.7471C5.75242 14.7471 5.46826 14.4671 5.46826 14.1221C5.46826 13.7771 5.74492 13.4971 6.08992 13.4971H6.09742ZM13.501 10.2582C13.846 10.2582 14.126 10.5382 14.126 10.8832C14.126 11.2282 13.846 11.5082 13.501 11.5082C13.156 11.5082 12.8727 11.2282 12.8727 10.8832C12.8727 10.5382 13.1485 10.2582 13.4935 10.2582H13.501ZM9.80309 10.2582C10.1481 10.2582 10.4281 10.5382 10.4281 10.8832C10.4281 11.2282 10.1481 11.5082 9.80309 11.5082C9.45809 11.5082 9.17475 11.2282 9.17475 10.8832C9.17475 10.5382 9.45059 10.2582 9.79559 10.2582H9.80309ZM6.09742 10.2582C6.44242 10.2582 6.72242 10.5382 6.72242 10.8832C6.72242 11.2282 6.44242 11.5082 6.09742 11.5082C5.75242 11.5082 5.46826 11.2282 5.46826 10.8832C5.46826 10.5382 5.74492 10.2582 6.08992 10.2582H6.09742ZM12.5358 3.39933H7.05417L7.05442 4.201C7.05442 4.546 6.77442 4.826 6.42942 4.826C6.08442 4.826 5.80442 4.546 5.80442 4.201L5.80398 3.41825C3.93712 3.57507 2.91667 4.70671 2.91667 6.64441V7.0035H16.6667L16.6667 6.64441C16.67 5.61525 16.3933 4.81525 15.8442 4.26525C15.3621 3.78175 14.6574 3.493 13.787 3.41865L13.7863 4.201C13.7863 4.546 13.5063 4.826 13.1613 4.826C12.8163 4.826 12.5363 4.546 12.5363 4.201L12.5358 3.39933Z" fill="#777792"/>
</svg>
