<svg width="20" height="20" viewBox="0 0 20 20" fill="none" xmlns="http://www.w3.org/2000/svg">
<path fill-rule="evenodd" clip-rule="evenodd" d="M13.1613 0.833496C13.5063 0.833496 13.7863 1.1135 13.7863 1.4585L13.7867 2.165C15.0035 2.24843 16.014 2.6652 16.7292 3.38191C17.5101 4.16608 17.9209 5.29358 17.9168 6.64608V14.2486C17.9168 17.0252 16.1534 18.7502 13.3159 18.7502H6.26758C3.43008 18.7502 1.66675 17.0011 1.66675 14.1852V6.64441C1.66675 4.02541 3.23929 2.34428 5.80399 2.16529L5.8045 1.4585C5.8045 1.1135 6.0845 0.833496 6.4295 0.833496C6.7745 0.833496 7.0545 1.1135 7.0545 1.4585L7.05425 2.14933H12.5359L12.5363 1.4585C12.5363 1.1135 12.8163 0.833496 13.1613 0.833496ZM16.6667 8.2535H2.91675V14.1852C2.91675 16.3236 4.10675 17.5002 6.26758 17.5002H13.3159C15.4767 17.5002 16.6668 16.3452 16.6668 14.2486L16.6667 8.2535ZM13.5011 13.4971C13.8461 13.4971 14.1261 13.7771 14.1261 14.1221C14.1261 14.4671 13.8461 14.7471 13.5011 14.7471C13.1561 14.7471 12.8727 14.4671 12.8727 14.1221C12.8727 13.7771 13.1486 13.4971 13.4936 13.4971H13.5011ZM9.80316 13.4971C10.1482 13.4971 10.4282 13.7771 10.4282 14.1221C10.4282 14.4671 10.1482 14.7471 9.80316 14.7471C9.45816 14.7471 9.17483 14.4671 9.17483 14.1221C9.17483 13.7771 9.45066 13.4971 9.79566 13.4971H9.80316ZM6.0975 13.4971C6.4425 13.4971 6.7225 13.7771 6.7225 14.1221C6.7225 14.4671 6.4425 14.7471 6.0975 14.7471C5.7525 14.7471 5.46833 14.4671 5.46833 14.1221C5.46833 13.7771 5.745 13.4971 6.09 13.4971H6.0975ZM13.5011 10.2582C13.8461 10.2582 14.1261 10.5382 14.1261 10.8832C14.1261 11.2282 13.8461 11.5082 13.5011 11.5082C13.1561 11.5082 12.8727 11.2282 12.8727 10.8832C12.8727 10.5382 13.1486 10.2582 13.4936 10.2582H13.5011ZM9.80316 10.2582C10.1482 10.2582 10.4282 10.5382 10.4282 10.8832C10.4282 11.2282 10.1482 11.5082 9.80316 11.5082C9.45816 11.5082 9.17483 11.2282 9.17483 10.8832C9.17483 10.5382 9.45066 10.2582 9.79566 10.2582H9.80316ZM6.0975 10.2582C6.4425 10.2582 6.7225 10.5382 6.7225 10.8832C6.7225 11.2282 6.4425 11.5082 6.0975 11.5082C5.7525 11.5082 5.46833 11.2282 5.46833 10.8832C5.46833 10.5382 5.745 10.2582 6.09 10.2582H6.0975ZM12.5359 3.39933H7.05425L7.0545 4.201C7.0545 4.546 6.7745 4.826 6.4295 4.826C6.0845 4.826 5.8045 4.546 5.8045 4.201L5.80405 3.41825C3.9372 3.57507 2.91675 4.70671 2.91675 6.64441V7.0035H16.6667L16.6668 6.64441C16.6701 5.61525 16.3934 4.81525 15.8442 4.26525C15.3622 3.78175 14.6575 3.493 13.787 3.41865L13.7863 4.201C13.7863 4.546 13.5063 4.826 13.1613 4.826C12.8163 4.826 12.5363 4.546 12.5363 4.201L12.5359 3.39933Z" fill="#7D7D7D"/>
</svg>
