<svg width="20" height="20" viewBox="0 0 20 20" fill="none" xmlns="http://www.w3.org/2000/svg">
<path fill-rule="evenodd" clip-rule="evenodd" d="M10.3124 1.66822C12.7457 1.66822 14.7274 3.64989 14.7274 6.08572L14.7273 7.39955C16.2067 7.9144 17.2708 9.32273 17.2708 10.9756V14.5497C17.2708 16.6372 15.5733 18.3347 13.4858 18.3347H7.11833C5.03083 18.3347 3.33333 16.6372 3.33333 14.5497V10.9756C3.33333 9.32304 4.3971 7.91493 5.876 7.39984L5.87658 6.08572C5.88158 4.88572 6.34575 3.77822 7.18324 2.94822C8.02158 2.11739 9.12824 1.63655 10.3124 1.66822ZM13.4858 8.44055H7.11833C5.71999 8.44055 4.58333 9.57722 4.58333 10.9756V14.5497C4.58333 15.9481 5.71999 17.0847 7.11833 17.0847H13.4858C14.8833 17.0847 16.0208 15.9481 16.0208 14.5497V10.9756C16.0208 9.57722 14.8833 8.44055 13.4858 8.44055ZM10.3019 11.2121C10.6469 11.2121 10.9269 11.4921 10.9269 11.8371V13.6879C10.9269 14.0329 10.6469 14.3129 10.3019 14.3129C9.95691 14.3129 9.67691 14.0329 9.67691 13.6879V11.8371C9.67691 11.4921 9.95691 11.2121 10.3019 11.2121ZM10.3099 2.91822H10.2966C9.45241 2.91822 8.66158 3.24322 8.06408 3.83572C7.46241 4.43072 7.12991 5.22489 7.12658 6.07155L7.12583 7.19008H13.4767L13.4774 6.08572C13.4774 4.33905 12.0566 2.91822 10.3099 2.91822Z" fill="#777792"/>
</svg>
