<svg width="20" height="20" viewBox="0 0 20 20" fill="none" xmlns="http://www.w3.org/2000/svg">
<path fill-rule="evenodd" clip-rule="evenodd" d="M10 1.66663C14.595 1.66663 18.3334 5.40496 18.3334 9.99996C18.3334 14.595 14.595 18.3333 10 18.3333C5.40502 18.3333 1.66669 14.595 1.66669 9.99996C1.66669 5.40496 5.40502 1.66663 10 1.66663ZM10 2.91663C6.09419 2.91663 2.91669 6.09413 2.91669 9.99996C2.91669 13.9058 6.09419 17.0833 10 17.0833C13.9059 17.0833 17.0834 13.9058 17.0834 9.99996C17.0834 6.09413 13.9059 2.91663 10 2.91663ZM9.71769 5.91279C10.0635 5.91279 10.3427 6.19279 10.3427 6.53779V10.2228L13.1802 11.9145C13.476 12.092 13.5735 12.4753 13.3969 12.772C13.2794 12.9678 13.0719 13.077 12.8594 13.077C12.7502 13.077 12.6402 13.0486 12.5394 12.9895L9.39769 11.1153C9.20935 11.002 9.09269 10.7978 9.09269 10.5778V6.53779C9.09269 6.19279 9.37269 5.91279 9.71769 5.91279Z" fill="#777792"/>
</svg>
