<svg width="20" height="20" viewBox="0 0 20 20" fill="none" xmlns="http://www.w3.org/2000/svg">
<path fill-rule="evenodd" clip-rule="evenodd" d="M10 1.25C10.2974 1.25 10.5722 1.40846 10.7212 1.6658L19.8879 17.4991C20.0371 17.7569 20.0374 18.0748 19.8886 18.3329C19.7398 18.591 19.4646 18.75 19.1667 18.75H0.833333C0.535434 18.75 0.260192 18.591 0.111396 18.3329C-0.037399 18.0748 -0.0371137 17.7569 0.112145 17.4991L9.27881 1.6658C9.4278 1.40846 9.70263 1.25 10 1.25ZM2.27871 17.0833H17.7213L10 3.74655L2.27871 17.0833Z" fill="#FF0000"/>
<path fill-rule="evenodd" clip-rule="evenodd" d="M9.99934 7.08337C10.4596 7.08301 10.833 7.4558 10.8333 7.91604L10.8367 12.0827C10.837 12.5429 10.4642 12.9163 10.004 12.9167C9.54377 12.9171 9.17037 12.5443 9.17001 12.084L9.16667 7.91737C9.1663 7.45714 9.5391 7.08374 9.99934 7.08337ZM10 13.75C10.4602 13.75 10.8333 14.1231 10.8333 14.5834V15C10.8333 15.4603 10.4602 15.8334 10 15.8334C9.53977 15.8334 9.16667 15.4603 9.16667 15V14.5834C9.16667 14.1231 9.53977 13.75 10 13.75Z" fill="#FF0000"/>
</svg>
