<svg width="20" height="20" viewBox="0 0 20 20" fill="none" xmlns="http://www.w3.org/2000/svg">
<path d="M10 1.60693C11.847 1.60693 13.6184 2.34067 14.9245 3.64673C16.2306 4.95278 16.9643 6.72418 16.9643 8.57122C16.9643 11.5141 14.8964 14.7212 10.8143 18.2269C10.5873 18.4219 10.2979 18.529 9.99867 18.5288C9.69943 18.5285 9.41022 18.4209 9.18358 18.2255L8.91358 17.9912C5.01215 14.5769 3.03572 11.4484 3.03572 8.57122C3.03572 6.72418 3.76946 4.95278 5.07551 3.64673C6.38157 2.34067 8.15296 1.60693 10 1.60693ZM10 2.67836C8.43712 2.67836 6.93825 3.29921 5.83313 4.40434C4.728 5.50947 4.10715 7.00834 4.10715 8.57122C4.10715 11.0726 5.92715 13.9548 9.61715 17.1834L9.88358 17.4141C9.91597 17.4419 9.95728 17.4573 10 17.4573C10.0427 17.4573 10.084 17.4419 10.1164 17.4141C13.985 14.0912 15.8929 11.1319 15.8929 8.57122C15.8929 7.79736 15.7404 7.03108 15.4443 6.31612C15.1482 5.60117 14.7141 4.95154 14.1669 4.40434C13.6197 3.85714 12.9701 3.42307 12.2551 3.12693C11.5402 2.83079 10.7739 2.67836 10 2.67836ZM10 5.89265C10.7104 5.89265 11.3917 6.17485 11.894 6.67718C12.3964 7.17951 12.6786 7.86082 12.6786 8.57122C12.6786 9.28162 12.3964 9.96293 11.894 10.4653C11.3917 10.9676 10.7104 11.2498 10 11.2498C9.28961 11.2498 8.6083 10.9676 8.10597 10.4653C7.60364 9.96293 7.32143 9.28162 7.32143 8.57122C7.32143 7.86082 7.60364 7.17951 8.10597 6.67718C8.6083 6.17485 9.28961 5.89265 10 5.89265ZM10 6.96408C9.57377 6.96408 9.16498 7.1334 8.86358 7.4348C8.56219 7.7362 8.39286 8.14498 8.39286 8.57122C8.39286 8.99746 8.56219 9.40624 8.86358 9.70764C9.16498 10.009 9.57377 10.1784 10 10.1784C10.4262 10.1784 10.835 10.009 11.1364 9.70764C11.4378 9.40624 11.6071 8.99746 11.6071 8.57122C11.6071 8.14498 11.4378 7.7362 11.1364 7.4348C10.835 7.1334 10.4262 6.96408 10 6.96408Z" fill="#777792"/>
</svg>
