<svg width="17" height="15" viewBox="0 0 17 15" fill="none" xmlns="http://www.w3.org/2000/svg">
<path fill-rule="evenodd" clip-rule="evenodd" d="M11.6992 0C12.1726 1.60885e-05 12.6368 0.131861 13.0395 0.380766C13.4423 0.62967 13.7679 0.985803 13.9797 1.40927L15.1577 3.76457C15.3651 3.67957 15.5691 3.58777 15.7697 3.48918C15.9715 3.38841 16.205 3.37192 16.4189 3.44333C16.6328 3.51474 16.8096 3.66821 16.9104 3.86997C17.0112 4.07173 17.0277 4.30525 16.9562 4.51917C16.8848 4.73309 16.7314 4.90988 16.5296 5.01065C16.3253 5.10159 16.1199 5.19 15.9134 5.27584L16.7302 6.91036C16.9075 7.26476 16.9998 7.65561 16.9996 8.05188V10.1998C17.0002 10.5586 16.9247 10.9135 16.7782 11.2411C16.6317 11.5687 16.4175 11.8615 16.1497 12.1003V13.1747C16.1497 13.5129 16.0153 13.8372 15.7762 14.0763C15.5371 14.3154 15.2128 14.4497 14.8747 14.4497C14.5365 14.4497 14.2123 14.3154 13.9731 14.0763C13.734 13.8372 13.5997 13.5129 13.5997 13.1747V12.7497H3.39993V13.1747C3.39993 13.5129 3.2656 13.8372 3.0265 14.0763C2.78739 14.3154 2.4631 14.4497 2.12496 14.4497C1.78681 14.4497 1.46252 14.3154 1.22341 14.0763C0.984309 13.8372 0.849982 13.5129 0.849982 13.1747V12.1003C0.328093 11.6329 0 10.9546 0 10.1998V8.05103C0.000158844 7.65533 0.0924067 7.26509 0.269444 6.91121L1.07948 5.28944C0.874632 5.20274 0.671486 5.11094 0.47174 5.0115C0.271001 4.90942 0.118411 4.73255 0.0468618 4.51902C-0.0246872 4.30548 -0.00946455 4.07238 0.0892482 3.86997C0.139107 3.77004 0.208171 3.68091 0.292493 3.60768C0.376815 3.53445 0.474741 3.47856 0.580675 3.44319C0.686609 3.40783 0.798474 3.39369 0.909876 3.40158C1.02128 3.40947 1.13003 3.43923 1.22992 3.48918C1.43052 3.58862 1.63537 3.67957 1.84191 3.76457L3.01999 1.41012C3.23167 0.986494 3.55715 0.630187 3.95994 0.381127C4.36273 0.132067 4.82692 9.50145e-05 5.30049 0H11.6992ZM4.6749 7.64984C4.33676 7.64984 4.01246 7.78417 3.77336 8.02327C3.53426 8.26238 3.39993 8.58667 3.39993 8.92481C3.39993 9.26296 3.53426 9.58725 3.77336 9.82636C4.01246 10.0655 4.33676 10.1998 4.6749 10.1998C5.01305 10.1998 5.33734 10.0655 5.57645 9.82636C5.81555 9.58725 5.94988 9.26296 5.94988 8.92481C5.94988 8.58667 5.81555 8.26238 5.57645 8.02327C5.33734 7.78417 5.01305 7.64984 4.6749 7.64984ZM12.3247 7.64984C11.9866 7.64984 11.6623 7.78417 11.4232 8.02327C11.1841 8.26238 11.0498 8.58667 11.0498 8.92481C11.0498 9.26296 11.1841 9.58725 11.4232 9.82636C11.6623 10.0655 11.9866 10.1998 12.3247 10.1998C12.6629 10.1998 12.9872 10.0655 13.2263 9.82636C13.4654 9.58725 13.5997 9.26296 13.5997 8.92481C13.5997 8.58667 13.4654 8.26238 13.2263 8.02327C12.9872 7.78417 12.6629 7.64984 12.3247 7.64984ZM11.6992 1.69996H5.30049C5.16059 1.69994 5.02285 1.73446 4.89948 1.80044C4.77612 1.86642 4.67095 1.96183 4.5933 2.07821L4.54061 2.17L3.46113 4.32726C4.7769 4.72165 6.54996 5.09989 8.49982 5.09989C10.3205 5.09989 11.9856 4.7701 13.2682 4.40546L13.5377 4.32726L12.459 2.17C12.3965 2.0449 12.304 1.93717 12.1899 1.85636C12.0757 1.77555 11.9433 1.72417 11.8046 1.70676L11.6992 1.69996Z" fill="#F1732B"/>
</svg>
