<svg width="20" height="20" viewBox="0 0 20 20" fill="none" xmlns="http://www.w3.org/2000/svg">
<path fill-rule="evenodd" clip-rule="evenodd" d="M11.4309 12.7427C12.4342 12.7427 13.2509 13.5536 13.2509 14.5502V17.1136C13.2509 17.3277 13.4225 17.4994 13.6425 17.5044H15.2309C16.4825 17.5044 17.5 16.4994 17.5 15.2644V7.99439C17.4942 7.56939 17.2917 7.16939 16.9442 6.90355L11.45 2.52189C10.7125 1.93772 9.68085 1.93772 8.94085 2.52355L3.48419 6.90189C3.12335 7.17605 2.92085 7.57605 2.91669 8.00855V15.2644C2.91669 16.4994 3.93419 17.5044 5.18585 17.5044H6.78919C7.01502 17.5044 7.19835 17.3252 7.19835 17.1052C7.19835 17.0569 7.20419 17.0086 7.21419 16.9627V14.5502C7.21419 13.5594 8.02585 12.7494 9.02169 12.7427H11.4309ZM15.2309 18.7544H13.6275C12.7092 18.7327 12.0009 18.0119 12.0009 17.1136V14.5502C12.0009 14.2427 11.745 13.9927 11.4309 13.9927H9.02585C8.71835 13.9944 8.46419 14.2452 8.46419 14.5502V17.1052C8.46419 17.1677 8.45585 17.2277 8.43835 17.2844C8.34835 18.1094 7.64335 18.7544 6.78919 18.7544H5.18585C3.24502 18.7544 1.66669 17.1886 1.66669 15.2644V8.00272C1.67502 7.17439 2.05669 6.41605 2.71585 5.91689L8.16169 1.54605C9.36085 0.596052 11.0317 0.596052 12.2284 1.54439L17.7134 5.91939C18.3575 6.41022 18.7392 7.16689 18.75 7.98522V15.2644C18.75 17.1886 17.1717 18.7544 15.2309 18.7544Z" fill="#777792"/>
</svg>
