<svg width="20" height="20" viewBox="0 0 20 20" fill="none" xmlns="http://www.w3.org/2000/svg">
<path fill-rule="evenodd" clip-rule="evenodd" d="M9.78258 1.66663C14.2576 1.66663 17.8976 5.30663 17.8976 9.78163C17.8976 11.8929 17.0873 13.8185 15.7615 15.2637L18.3704 17.8672C18.6146 18.1114 18.6154 18.5064 18.3713 18.7505C18.2496 18.8739 18.0887 18.9347 17.9287 18.9347C17.7696 18.9347 17.6096 18.8739 17.4871 18.7522L14.8466 16.1191C13.4576 17.2315 11.6965 17.8975 9.78258 17.8975C5.30758 17.8975 1.66675 14.2566 1.66675 9.78163C1.66675 5.30663 5.30758 1.66663 9.78258 1.66663ZM9.78258 2.91663C5.99675 2.91663 2.91675 5.99579 2.91675 9.78163C2.91675 13.5675 5.99675 16.6475 9.78258 16.6475C13.5676 16.6475 16.6476 13.5675 16.6476 9.78163C16.6476 5.99579 13.5676 2.91663 9.78258 2.91663Z" fill="#777792"/>
</svg>
