<svg width="20" height="20" viewBox="0 0 20 20" fill="none" xmlns="http://www.w3.org/2000/svg">
<path d="M16.6666 10.2285C16.6666 10.5449 16.4315 10.8064 16.1264 10.8478L16.0416 10.8535L5.05496 10.853L9.02412 14.8059C9.26872 15.0495 9.26957 15.4452 9.02602 15.6898C8.80461 15.9122 8.45743 15.9331 8.21237 15.7521L8.14214 15.6917L3.10047 10.6717C3.06823 10.6396 3.04022 10.6049 3.01646 10.5682C3.00974 10.5571 3.00291 10.5458 2.99643 10.5343C2.99047 10.5244 2.98509 10.5142 2.98001 10.5038C2.97295 10.4887 2.96606 10.4731 2.9598 10.4572C2.95471 10.445 2.95047 10.433 2.94659 10.421C2.94199 10.4061 2.93751 10.3902 2.93367 10.3741C2.9308 10.3628 2.92854 10.352 2.92656 10.3411C2.92378 10.3249 2.92142 10.3081 2.91973 10.2912C2.91827 10.2782 2.91739 10.2654 2.91691 10.2526C2.91678 10.2448 2.91663 10.2367 2.91663 10.2285L2.91694 10.2043C2.91742 10.192 2.91826 10.1798 2.91945 10.1675L2.91663 10.2285C2.91663 10.1891 2.92028 10.1505 2.92727 10.1131C2.92889 10.1041 2.93082 10.095 2.93295 10.0858C2.93739 10.067 2.94252 10.0489 2.94843 10.0311C2.95133 10.0223 2.95471 10.0129 2.95832 10.0035C2.96562 9.98471 2.97356 9.96678 2.9823 9.94932C2.98635 9.94111 2.9909 9.93251 2.99566 9.924C3.00347 9.91012 3.01151 9.89693 3.02002 9.88407C3.02602 9.87497 3.03267 9.8655 3.03961 9.85617L3.04502 9.84897C3.06186 9.82697 3.08013 9.80612 3.09968 9.78657L3.10043 9.78599L8.1421 4.76515C8.38668 4.52158 8.78241 4.5224 9.02598 4.76698C9.24741 4.98933 9.26686 5.33659 9.08481 5.58089L9.02415 5.65086L5.05663 9.60301L16.0416 9.60351C16.3868 9.60351 16.6666 9.88333 16.6666 10.2285Z" fill="#32323E"/>
</svg>
