<svg width="20" height="19" viewBox="0 0 20 19" fill="none" xmlns="http://www.w3.org/2000/svg">
<path d="M10 0L20 4V5.33333H18.6667C18.6667 5.51389 18.5955 5.67014 18.4531 5.80208C18.3108 5.93403 18.1424 6 17.9479 6H2.05208C1.85764 6 1.68924 5.93403 1.54688 5.80208C1.40451 5.67014 1.33333 5.51389 1.33333 5.33333H0V4L10 0ZM2.66667 6.66667H5.33333V14.6667H6.66667V6.66667H9.33333V14.6667H10.6667V6.66667H13.3333V14.6667H14.6667V6.66667H17.3333V14.6667H17.9479C18.1424 14.6667 18.3108 14.7326 18.4531 14.8646C18.5955 14.9965 18.6667 15.1528 18.6667 15.3333V16H1.33333V15.3333C1.33333 15.1528 1.40451 14.9965 1.54688 14.8646C1.68924 14.7326 1.85764 14.6667 2.05208 14.6667H2.66667V6.66667ZM19.2812 16.6667C19.4757 16.6667 19.6441 16.7326 19.7865 16.8646C19.9288 16.9965 20 17.1528 20 17.3333V18.6667H0V17.3333C0 17.1528 0.0711806 16.9965 0.213542 16.8646C0.355903 16.7326 0.524306 16.6667 0.71875 16.6667H19.2812Z" fill="#F1732B"/>
</svg>
