<svg width="20" height="20" viewBox="0 0 20 20" fill="none" xmlns="http://www.w3.org/2000/svg">
<g clip-path="url(#clip0_98_13659)">
<path d="M17.9688 8.75021C17.9688 8.29437 17.7877 7.85719 17.4653 7.53487C17.143 7.21254 16.7058 7.03146 16.25 7.03146H10.4688V6.04708C10.9978 5.93834 11.4732 5.6505 11.8147 5.2321C12.1563 4.8137 12.3431 4.29032 12.3438 3.75021C12.3438 1.64864 10.3453 0.291613 10.2602 0.234582C10.1831 0.183189 10.0926 0.155762 10 0.155762C9.9074 0.155762 9.81687 0.183189 9.73984 0.234582C9.65469 0.291613 7.65625 1.64864 7.65625 3.75021C7.65687 4.29032 7.84371 4.8137 8.18527 5.2321C8.52682 5.6505 9.0022 5.93834 9.53125 6.04708V7.03146H3.75C3.29416 7.03146 2.85699 7.21254 2.53466 7.53487C2.21233 7.85719 2.03125 8.29437 2.03125 8.75021V10.5729C2.03176 11.2386 2.2514 11.8857 2.65625 12.4143V15.6252C2.65625 16.081 2.83733 16.5182 3.15966 16.8405C3.48199 17.1629 3.91916 17.344 4.375 17.344H15.625C16.0808 17.344 16.518 17.1629 16.8403 16.8405C17.1627 16.5182 17.3438 16.081 17.3438 15.6252V12.4143C17.7486 11.8857 17.9682 11.2386 17.9688 10.5729V8.75021ZM8.59375 3.75021C8.59375 2.54708 9.53125 1.6088 10 1.21583C10.4688 1.60646 11.4062 2.54396 11.4062 3.75021C11.4062 4.12317 11.2581 4.48085 10.9944 4.74458C10.7306 5.0083 10.373 5.15646 10 5.15646C9.62704 5.15646 9.26935 5.0083 9.00563 4.74458C8.74191 4.48085 8.59375 4.12317 8.59375 3.75021ZM2.96875 8.75021C2.96875 8.54301 3.05106 8.34429 3.19757 8.19778C3.34409 8.05127 3.5428 7.96896 3.75 7.96896H16.25C16.4572 7.96896 16.6559 8.05127 16.8024 8.19778C16.9489 8.34429 17.0312 8.54301 17.0312 8.75021V10.5729C17.0312 11.6916 16.1461 12.626 15.0578 12.6557C14.7863 12.6634 14.516 12.6166 14.2629 12.518C14.0098 12.4195 13.779 12.2712 13.5843 12.0818C13.3895 11.8925 13.2347 11.6661 13.1289 11.4159C13.0232 11.1657 12.9687 10.8968 12.9688 10.6252C12.9688 10.5009 12.9194 10.3817 12.8315 10.2937C12.7435 10.2058 12.6243 10.1565 12.5 10.1565C12.3757 10.1565 12.2565 10.2058 12.1685 10.2937C12.0806 10.3817 12.0312 10.5009 12.0312 10.6252C12.0312 11.1639 11.8172 11.6806 11.4363 12.0615C11.0554 12.4425 10.5387 12.6565 10 12.6565C9.46128 12.6565 8.94462 12.4425 8.56369 12.0615C8.18276 11.6806 7.96875 11.1639 7.96875 10.6252C7.96875 10.5009 7.91936 10.3817 7.83146 10.2937C7.74355 10.2058 7.62432 10.1565 7.5 10.1565C7.37568 10.1565 7.25645 10.2058 7.16854 10.2937C7.08064 10.3817 7.03125 10.5009 7.03125 10.6252C7.03136 10.8969 6.97697 11.1658 6.87129 11.4161C6.76562 11.6664 6.6108 11.893 6.41602 12.0823C6.22123 12.2717 5.99043 12.4201 5.73728 12.5188C5.48412 12.6174 5.21376 12.6642 4.94219 12.6565C3.85391 12.626 2.96875 11.6916 2.96875 10.5729V8.75021ZM15.625 16.4065H4.375C4.1678 16.4065 3.96909 16.3241 3.82257 16.1776C3.67606 16.0311 3.59375 15.8324 3.59375 15.6252V13.2276C3.99882 13.4548 4.45292 13.5805 4.91719 13.594C5.31415 13.6057 5.70942 13.5374 6.07936 13.3929C6.44931 13.2485 6.78634 13.031 7.07031 12.7533C7.23281 12.5945 7.37695 12.4178 7.5 12.2268C7.76856 12.6461 8.1383 12.9912 8.57517 13.2302C9.01205 13.4692 9.50202 13.5944 10 13.5944C10.498 13.5944 10.988 13.4692 11.4248 13.2302C11.8617 12.9912 12.2314 12.6461 12.5 12.2268C12.6235 12.4179 12.7682 12.5945 12.9313 12.7533C13.4839 13.294 14.2269 13.5959 15 13.594H15.0836C15.5476 13.5804 16.0014 13.4547 16.4062 13.2276V15.6252C16.4062 15.8324 16.3239 16.0311 16.1774 16.1776C16.0309 16.3241 15.8322 16.4065 15.625 16.4065Z" fill="#777792"/>
</g>
<defs>
<clipPath id="clip0_98_13659">
<rect width="20" height="20" fill="white"/>
</clipPath>
</defs>
</svg>
