<svg width="20" height="20" viewBox="0 0 20 20" fill="none" xmlns="http://www.w3.org/2000/svg">
<g clip-path="url(#clip0_94_11625)">
<mask id="mask0_94_11625" style="mask-type:luminance" maskUnits="userSpaceOnUse" x="1" y="0" width="18" height="19">
<path d="M1 0.800049H19V18.8H1V0.800049Z" fill="white"/>
</mask>
<g mask="url(#mask0_94_11625)">
<path d="M17.1299 0.800049H1.93506C1.42076 0.800049 1 1.22861 1 1.75243V3.46671C1 3.99053 1.42076 4.4191 1.93506 4.4191H17.0831C17.5974 4.4191 18.0182 3.99053 18.0182 3.46671V1.75243C18.0649 1.22861 17.6441 0.800049 17.1299 0.800049ZM17.1299 10.3715H1.93506C1.42076 10.3715 1 10.8 1 11.3239V13.0381C1 13.562 1.42076 13.9905 1.93506 13.9905H17.0831C17.5974 13.9905 18.0182 13.562 18.0182 13.0381V11.3239C18.0649 10.8 17.6441 10.3715 17.1299 10.3715ZM10.4909 15.181H1.93506C1.42076 15.181 1 15.6096 1 16.1334V17.8477C1 18.3715 1.42076 18.8 1.93506 18.8H10.4909C11.0052 18.8 11.426 18.3715 11.426 17.8477V16.1334C11.426 15.6096 11.0052 15.181 10.4909 15.181ZM18.0649 5.60958H1.93506C1.42076 5.60958 1 6.03814 1 6.56193V8.27624C1 8.80003 1.42076 9.22862 1.93506 9.22862H18.0649C18.5792 9.22862 19 8.80003 19 8.27624V6.56193C19 6.03814 18.5792 5.60958 18.0649 5.60958Z" fill="#F1732B"/>
</g>
</g>
<defs>
<clipPath id="clip0_94_11625">
<rect width="18" height="18" fill="white" transform="translate(1 0.800049)"/>
</clipPath>
</defs>
</svg>
