<svg width="17" height="17" viewBox="0 0 17 17" fill="none" xmlns="http://www.w3.org/2000/svg">
<path d="M16.5699 3.67838C16.5302 3.58037 16.4674 3.49344 16.3867 3.42505C16.3061 3.35665 16.2101 3.30883 16.1069 3.28569C16.0038 3.26255 15.8965 3.26478 15.7944 3.29219C15.6923 3.31959 15.5983 3.37136 15.5206 3.44304L12.2275 6.48206L10.8195 6.17971L10.5172 4.77175L13.5562 1.47859C13.6279 1.40087 13.6796 1.30693 13.707 1.20481C13.7344 1.10269 13.7367 0.995452 13.7135 0.892285C13.6904 0.789119 13.6426 0.693104 13.5742 0.612475C13.5058 0.531847 13.4188 0.46901 13.3208 0.429355C12.4276 0.0680341 11.4593 -0.0683908 10.5011 0.032067C9.5428 0.132525 8.62386 0.466791 7.82501 1.00549C7.02615 1.5442 6.37182 2.27085 5.91951 3.12161C5.4672 3.97237 5.23075 4.9212 5.23094 5.88472C5.22988 6.69835 5.3968 7.50343 5.72124 8.24958L0.801116 12.5037C0.788858 12.5135 0.777418 12.525 0.765978 12.5356C0.27553 13.026 0 13.6912 0 14.3848C0 14.7283 0.0676444 15.0683 0.199071 15.3856C0.330498 15.7029 0.523133 15.9912 0.765978 16.2341C1.00882 16.4769 1.29712 16.6695 1.61441 16.801C1.93171 16.9324 2.27178 17 2.61521 17C3.30881 17 3.974 16.7245 4.46445 16.2341C4.47507 16.2234 4.48651 16.2112 4.49632 16.1997L8.74963 11.278C9.64559 11.6713 10.6255 11.8349 11.6006 11.7541C12.5758 11.6732 13.5153 11.3504 14.3343 10.815C15.1533 10.2795 15.8257 9.54821 16.2908 8.68734C16.756 7.82647 16.999 6.8632 16.9981 5.88472C16.9993 5.12851 16.8539 4.37922 16.5699 3.67838ZM11.1145 10.4608C10.3407 10.4598 9.57975 10.263 8.90244 9.8888C8.77122 9.81631 8.61908 9.79112 8.4715 9.81746C8.32392 9.84379 8.18987 9.92004 8.09182 10.0334L3.52389 15.3237C3.2767 15.5586 2.94755 15.6876 2.60662 15.6832C2.26568 15.6788 1.93994 15.5415 1.69884 15.3004C1.45775 15.0593 1.32037 14.7335 1.31601 14.3926C1.31164 14.0517 1.44063 13.7225 1.67548 13.4753L6.96169 8.90821C7.07528 8.81011 7.15166 8.67592 7.178 8.52816C7.20434 8.3804 7.17903 8.22808 7.10633 8.09677C6.6896 7.34306 6.49403 6.48704 6.5421 5.62713C6.59017 4.76723 6.87994 3.93834 7.37808 3.23577C7.87622 2.5332 8.56252 1.98547 9.35806 1.65554C10.1536 1.32562 11.0261 1.2269 11.8753 1.37072L9.32573 4.13354C9.25479 4.2105 9.20337 4.30336 9.17578 4.40432C9.1482 4.50528 9.14525 4.61139 9.1672 4.71373L9.62972 6.86531C9.65617 6.98837 9.71759 7.10117 9.80659 7.19017C9.89559 7.27918 10.0084 7.34059 10.1315 7.36705L12.2847 7.82956C12.387 7.85151 12.4931 7.84857 12.5941 7.82098C12.695 7.79339 12.7879 7.74197 12.8649 7.67103L15.6277 5.12149C15.7378 5.77768 15.7037 6.44998 15.5277 7.09164C15.3517 7.73331 15.038 8.32893 14.6085 8.83708C14.1789 9.34523 13.6439 9.75372 13.0405 10.0341C12.4371 10.3145 11.7799 10.4601 11.1145 10.4608Z" fill="#777792"/>
</svg>
