<svg width="20" height="20" viewBox="0 0 20 20" fill="none" xmlns="http://www.w3.org/2000/svg">
<path d="M14.9028 5.07746C14.0312 2.76434 12.1575 1.29932 9.32721 1.29932C5.72596 1.29932 3.20627 3.97338 2.98973 7.46213C1.25346 8.01744 3.8147e-05 9.78869 3.8147e-05 11.7949C3.8147e-05 14.2509 1.93066 16.3256 4.21533 16.3256H6.02096C6.36596 16.3256 6.64596 16.0456 6.64596 15.7006C6.64596 15.3553 6.36596 15.0756 6.02096 15.0756H4.21533C2.60783 15.0756 1.23033 13.5734 1.23033 11.7949C1.23033 10.2234 2.33221 8.80557 3.71439 8.56807L4.28158 8.47025L4.23127 7.89744L4.22658 7.89025C4.22658 4.84588 6.23002 2.54963 9.32721 2.54963C11.8097 2.54963 13.2044 3.77275 13.8494 5.859L13.9831 6.28932L14.4335 6.299C16.7553 6.34775 18.791 8.23152 18.791 10.5719C18.791 12.7018 17.3794 15.0756 15.2422 15.0756H13.8141C13.4691 15.0756 13.1891 15.3556 13.1891 15.7006C13.1891 16.0459 13.4691 16.3256 13.8141 16.3256L15.2375 16.3237C18.3625 16.2412 19.9903 13.2559 19.9903 10.5719C19.9903 7.68687 17.7294 5.38156 14.9028 5.0775L14.9028 5.07746ZM10.4685 10.0574C10.465 10.0537 10.4637 10.0505 10.4615 10.0474L10.3034 9.88209C10.2169 9.79053 10.1016 9.74522 9.98625 9.74584C9.87092 9.7449 9.75623 9.79053 9.6681 9.88207L9.51 10.0474C9.50687 10.0505 9.50623 10.0543 9.50344 10.0574L7.2475 12.5524C7.07281 12.7349 7.07281 13.0302 7.2475 13.2133L7.405 13.3202C7.57971 13.5027 7.86281 13.4436 8.03719 13.2611L9.36752 11.778V18.0755C9.36752 18.4205 9.64752 18.7005 9.99252 18.7005C10.3375 18.7005 10.6175 18.4205 10.6175 18.0755V11.7839L11.9919 13.3002C12.1666 13.4827 12.4491 13.5418 12.6235 13.3593L12.781 13.2524C12.9557 13.0693 12.9557 12.7739 12.781 12.5914L10.4685 10.0574Z" fill="#7D7D7D"/>
</svg>
