<svg width="60" height="60" viewBox="0 0 60 60" fill="none" xmlns="http://www.w3.org/2000/svg">
<mask id="mask0_98_14046" style="mask-type:luminance" maskUnits="userSpaceOnUse" x="2" y="2" width="56" height="56">
<path d="M30 55C33.2837 55.0043 36.5358 54.3596 39.5695 53.1029C42.6032 51.8463 45.3587 50.0025 47.6775 47.6775C50.0025 45.3587 51.8463 42.6032 53.1029 39.5695C54.3596 36.5358 55.0043 33.2837 55 30C55.0042 26.7164 54.3595 23.4642 53.1028 20.4306C51.8462 17.3969 50.0024 14.6414 47.6775 12.3225C45.3587 9.99756 42.6032 8.15377 39.5695 6.89713C36.5358 5.64049 33.2837 4.99577 30 5.00002C26.7164 4.99583 23.4642 5.64059 20.4306 6.89722C17.3969 8.15386 14.6414 9.99761 12.3225 12.3225C9.99761 14.6414 8.15386 17.3969 6.89722 20.4306C5.64059 23.4642 4.99583 26.7164 5.00002 30C4.99577 33.2837 5.64049 36.5358 6.89713 39.5695C8.15377 42.6032 9.99756 45.3587 12.3225 47.6775C14.6414 50.0024 17.3969 51.8462 20.4306 53.1028C23.4642 54.3595 26.7164 55.0042 30 55Z" fill="white"/>
<path fill-rule="evenodd" clip-rule="evenodd" d="M30 2.50002C33.612 2.49576 37.1892 3.20515 40.5263 4.58744C43.8632 5.96971 46.8942 7.99761 49.4452 10.5547C52.0023 13.1057 54.0302 16.1368 55.4125 19.4738C56.7948 22.8108 57.5042 26.388 57.5 30C57.5043 33.612 56.7949 37.1892 55.4126 40.5263C54.0303 43.8633 52.0024 46.8943 49.4453 49.4453C46.8943 52.0024 43.8633 54.0303 40.5263 55.4126C37.1892 56.7949 33.612 57.5043 30 57.5C26.388 57.5042 22.8108 56.7948 19.4738 55.4125C16.1368 54.0302 13.1058 52.0023 10.5548 49.4453C7.99767 46.8943 5.96973 43.8633 4.58744 40.5263C3.20514 37.1892 2.49576 33.612 2.50002 30C2.49584 26.388 3.20526 22.8108 4.58754 19.4738C5.96981 16.1368 7.99771 13.1058 10.5548 10.5548C13.1058 7.99771 16.1368 5.96981 19.4738 4.58754C22.8108 3.20525 26.388 2.49584 30 2.50002ZM38.6128 9.20682C35.8834 8.07624 32.9575 7.49619 30.0033 7.50002H29.9968C27.0426 7.49625 24.1167 8.07633 21.3873 9.20691C18.6579 10.3375 16.1789 11.9963 14.0926 14.088L14.088 14.0926C11.9963 16.1789 10.3375 18.6579 9.20691 21.3873C8.07633 24.1167 7.49625 27.0426 7.50002 29.9968V30.0033C7.49619 32.9575 8.07624 35.8834 9.20682 38.6128C10.3374 41.3422 11.9962 43.8212 14.088 45.9074L14.0926 45.912C16.1789 48.0037 18.6579 49.6625 21.3873 50.7931C24.1167 51.9237 27.0426 52.5038 29.9968 52.5H30.0033C32.9575 52.5038 35.8834 51.9238 38.6128 50.7932C41.3422 49.6626 43.8212 48.0038 45.9074 45.9121L45.9121 45.9074C48.0038 43.8212 49.6626 41.3422 50.7932 38.6128C51.9238 35.8834 52.5038 32.9575 52.5 30.0033V29.9968C52.5038 27.0426 51.9237 24.1167 50.7931 21.3873C49.6625 18.6579 48.0037 16.1789 45.912 14.0926L45.9074 14.088C43.8212 11.9962 41.3422 10.3374 38.6128 9.20682Z" fill="white"/>
<path fill-rule="evenodd" clip-rule="evenodd" d="M44.2678 20.7322C45.2441 21.7085 45.2441 23.2915 44.2678 24.2678L29.2678 39.2678C28.2915 40.2441 26.7085 40.2441 25.7322 39.2678L18.2322 31.7678C17.2559 30.7915 17.2559 29.2085 18.2322 28.2322C19.2085 27.2559 20.7915 27.2559 21.7678 28.2322L27.5 33.9645L40.7322 20.7322C41.7085 19.7559 43.2915 19.7559 44.2678 20.7322Z" fill="black"/>
</mask>
<g mask="url(#mask0_98_14046)">
<path d="M0 0H60V60H0V0Z" fill="#0F9D8F"/>
</g>
</svg>
